<?xml version="1.0" encoding="utf-8"?>
<!-- Generator: Adobe Illustrator 17.1.0, SVG Export Plug-In . SVG Version: 6.00 Build 0)  -->
<!DOCTYPE svg PUBLIC "-//W3C//DTD SVG 1.1//EN" "http://www.w3.org/Graphics/SVG/1.1/DTD/svg11.dtd">
<svg version="1.1" id="Layer_1" xmlns="http://www.w3.org/2000/svg" xmlns:xlink="http://www.w3.org/1999/xlink" x="0px" y="0px"
	 viewBox="0 0 66 85" enable-background="new 0 0 66 85" xml:space="preserve">
<path fill="none" d="M64.6,85H1.4C0.6,85,0,84.4,0,83.6V12.8c0-0.8,0.6-1.4,1.4-1.4h17.2c0.8,0,1.4,0.6,1.4,1.4
	c0,0.8-0.6,1.4-1.4,1.4H2.9v68h60.3v-68H47.3c-0.8,0-1.4-0.6-1.4-1.4c0-0.8,0.6-1.4,1.4-1.4h17.2c0.8,0,1.4,0.6,1.4,1.4v70.8
	C66,84.4,65.4,85,64.6,85z"/>
<path fill="none" d="M47.3,22.7H18.7c-0.8,0-1.4-0.6-1.4-1.4V9.9c0-0.8,0.6-1.4,1.4-1.4H23C23.7,2.9,28.4,0,33,0s9.3,2.9,10,8.5h4.4
	c0.8,0,1.4,0.6,1.4,1.4v11.3C48.8,22,48.1,22.7,47.3,22.7z M20.1,19.8h25.8v-8.5h-4.3c-0.8,0-1.4-0.6-1.4-1.4c0-4.9-3.7-7.1-7.2-7.1
	S25.8,5,25.8,9.9c0,0.8-0.6,1.4-1.4,1.4h-4.3V19.8z"/>
<path fill="none" d="M58.8,76.5H7.2c-0.8,0-1.4-0.6-1.4-1.4V18.4c0-0.8,0.6-1.4,1.4-1.4h11.5c0.8,0,1.4,0.6,1.4,1.4
	c0,0.8-0.6,1.4-1.4,1.4h-10v53.8h48.8V19.8h-10c-0.8,0-1.4-0.6-1.4-1.4c0-0.8,0.6-1.4,1.4-1.4h11.5c0.8,0,1.4,0.6,1.4,1.4v56.7
	C60.3,75.9,59.6,76.5,58.8,76.5z"/>
<path fill="none" d="M44.5,62.3c0,0-0.1,0-0.1,0c-0.6,0-1.1-0.4-1.3-1l-7.4-22l-7.1,16.4c-0.2,0.5-0.7,0.9-1.3,0.9h0
	c-0.6,0-1.1-0.4-1.3-0.9l-4.7-11.7L17,50.4c-0.3,0.4-0.7,0.6-1.2,0.6H7.2v-2.8H15l5.3-7.9c0.3-0.4,0.8-0.7,1.3-0.6
	c0.5,0.1,1,0.4,1.2,0.9l4.5,11l7.2-16.7c0.2-0.5,0.8-0.9,1.4-0.9c0.6,0,1.1,0.4,1.3,1l7.5,22.3l4.2-8.3c0.2-0.5,0.7-0.8,1.3-0.8h8.6
	V51h-7.7l-5.3,10.6C45.5,62,45,62.3,44.5,62.3z"/>
</svg>
