<?xml version="1.0" encoding="utf-8"?>
<!-- Generator: Adobe Illustrator 17.1.0, SVG Export Plug-In . SVG Version: 6.00 Build 0)  -->
<!DOCTYPE svg PUBLIC "-//W3C//DTD SVG 1.1//EN" "http://www.w3.org/Graphics/SVG/1.1/DTD/svg11.dtd">
<svg version="1.1" xmlns="http://www.w3.org/2000/svg" xmlns:xlink="http://www.w3.org/1999/xlink" x="0px" y="0px"
	 viewBox="0 0 627 792" enable-background="new 0 0 627 792" xml:space="preserve">
<g id="Layer_2">
	<path d="M37,723.1h148.9c6.7,0,12.1-5.5,12.1-12V562.2c0-6.7-5.5-12-12.1-12H37c-6.7,0-12,5.5-12,12v148.9
		C25,717.6,30.5,723.1,37,723.1L37,723.1z M64.7,589.8h93.6v93.6H64.7V589.8z"/>
	<path d="M37,508.1h148.9c6.7,0,12.1-5.5,12.1-12V347.1c0-6.7-5.5-12-12.1-12H37c-6.7,0-12,5.5-12,12V496
		C25,502.7,30.5,508.1,37,508.1L37,508.1z M64.7,374.8h93.6v93.5H64.7V374.8z"/>
	<path d="M148.8,283.8c-10.1,0-20.3-3.9-28-11.7L105,256.5H64.7v-93.6h93.6v15.5l39.7-39.7v-3.5c0-6.7-5.5-12-12.1-12H37
		c-6.5,0-12,5.5-12,12v148.9c0,6.7,5.5,12,12,12h148.9c6.7,0,12.1-5.5,12.1-12v-33l-21.2,21.2C169.1,279.8,158.9,283.8,148.8,283.8
		L148.8,283.8z"/>
	<path d="M252.4,140.5c-7.7-7.7-20.3-7.7-28,0l-75.6,75.4l-23.2-23.2c-7.7-7.7-20.3-7.7-28,0c-7.7,7.7-7.7,20.3,0,28l37.3,37.3
		c3.9,3.9,8.9,5.8,14.1,5.8s10.1-2,14.1-5.8l89.5-89.5C260.1,160.8,260.1,148.2,252.4,140.5L252.4,140.5z"/>
	<rect x="25" y="122.9" fill="none" width="233" height="598.4"/>
	<path d="M606.7,241.1H312.8c-16.7,0-30.3-13.6-30.3-30.3s13.6-30.3,30.3-30.3h293.9c16.7,0,30.3,13.6,30.3,30.3
		S623.4,241.1,606.7,241.1z"/>
	<path d="M606.7,452.4H312.8c-16.7,0-30.3-13.6-30.3-30.3s13.6-30.3,30.3-30.3h293.9c16.7,0,30.3,13.6,30.3,30.3
		S623.4,452.4,606.7,452.4z"/>
	<path d="M606.7,666.9H312.8c-16.7,0-30.3-13.6-30.3-30.3c0-16.7,13.6-30.3,30.3-30.3h293.9c16.7,0,30.3,13.6,30.3,30.3
		C637,653.3,623.4,666.9,606.7,666.9z"/>
</g>
<g id="Layer_1">
	<path fill="#FFFFFF" d="M12,696.1h148.9c6.7,0,12.1-5.5,12.1-12V535.2c0-6.7-5.5-12-12.1-12H12c-6.7,0-12,5.5-12,12v148.9
		C0,690.6,5.5,696.1,12,696.1L12,696.1z M39.7,562.8h93.6v93.6H39.7V562.8z"/>
	<path fill="#FFFFFF" d="M12,481.1h148.9c6.7,0,12.1-5.5,12.1-12V320.1c0-6.7-5.5-12-12.1-12H12c-6.7,0-12,5.5-12,12V469
		C0,475.7,5.5,481.1,12,481.1L12,481.1z M39.7,347.8h93.6v93.5H39.7V347.8z"/>
	<path fill="#FFFFFF" d="M123.8,256.8c-10.1,0-20.3-3.9-28-11.7L80,229.5H39.7v-93.6h93.6v44.5l39.7-39.7v-32.5
		c0-6.7-5.5-12-12.1-12H12c-6.5,0-12,5.5-12,12v148.9c0,6.7,5.5,12,12,12h148.9c6.7,0,12.1-5.5,12.1-12v-33l-21.2,21.2
		C144.1,252.8,133.9,256.8,123.8,256.8L123.8,256.8z"/>
	<path fill="#FFFFFF" d="M227.4,113.5c-7.7-7.7-20.3-7.7-28,0l-75.6,75.4l-23.2-23.2c-7.7-7.7-20.3-7.7-28,0c-7.7,7.7-7.7,20.3,0,28
		l37.3,37.3c3.9,3.9,8.9,5.8,14.1,5.8s10.1-2,14.1-5.8l89.5-89.5C235.1,133.8,235.1,121.2,227.4,113.5L227.4,113.5z"/>
	<path fill="#FFFFFF" d="M581.7,214.1H287.8c-16.7,0-30.3-13.6-30.3-30.3s13.6-30.3,30.3-30.3h293.9c16.7,0,30.3,13.6,30.3,30.3
		S598.4,214.1,581.7,214.1z"/>
	<path fill="#FFFFFF" d="M581.7,425.4H287.8c-16.7,0-30.3-13.6-30.3-30.3s13.6-30.3,30.3-30.3h293.9c16.7,0,30.3,13.6,30.3,30.3
		S598.4,425.4,581.7,425.4z"/>
	<path fill="#FFFFFF" d="M581.7,639.9H287.8c-16.7,0-30.3-13.6-30.3-30.3c0-16.7,13.6-30.3,30.3-30.3h293.9
		c16.7,0,30.3,13.6,30.3,30.3C612,626.3,598.4,639.9,581.7,639.9z"/>
</g>
</svg>
