<?xml version="1.0" encoding="utf-8"?>
<!-- Generator: Adobe Illustrator 17.1.0, SVG Export Plug-In . SVG Version: 6.00 Build 0)  -->
<!DOCTYPE svg PUBLIC "-//W3C//DTD SVG 1.1//EN" "http://www.w3.org/Graphics/SVG/1.1/DTD/svg11.dtd">
<svg version="1.1" id="Layer_1" xmlns="http://www.w3.org/2000/svg" xmlns:xlink="http://www.w3.org/1999/xlink" x="0px" y="0px"
	 viewBox="0 0 74 88.2" enable-background="new 0 0 74 88.2" xml:space="preserve">
<path fill="none" d="M37,88.3c-0.2,0-0.4,0-0.6-0.1C4.2,79.1,0.2,58.1,0,57.2c0-0.1,0-0.3,0-0.4V4.3c0-0.9,0.5-1.7,1.3-2
	c0.8-0.3,1.7-0.2,2.4,0.5c3.9,3.9,7.1,5.2,13,5.2c7.1,0,14.9-3.3,18.6-7.9c0.8-1,2.6-1,3.5,0c3.7,4.6,11.5,7.9,18.6,7.9
	c5.8,0,9.1-1.3,13-5.2c0.6-0.6,1.6-0.8,2.4-0.5c0.8,0.3,1.3,1.1,1.3,2v52.6c0,0.1,0,0.3,0,0.4c-0.2,0.9-4.1,21.8-36.4,30.9
	C37.4,88.2,37.2,88.3,37,88.3z M4.4,56.6c0.4,2,4.9,19.1,32.6,27.1c27.8-8,32.2-25.1,32.6-27.1V9c-3.5,2.4-7.2,3.3-12.3,3.3
	c-7.5,0-15.5-3.1-20.3-7.8c-4.8,4.7-12.8,7.8-20.3,7.8c-5.1,0-8.9-0.9-12.3-3.3V56.6z"/>
<path fill="none" d="M42.8,64.9H31.2c-1.2,0-2.2-1-2.2-2.2V50.3H16.7c-1.2,0-2.2-1-2.2-2.2V36.4c0-1.2,1-2.2,2.2-2.2H29V21.8
	c0-1.2,1-2.2,2.2-2.2h11.6c1.2,0,2.2,1,2.2,2.2v12.4h12.3c1.2,0,2.2,1,2.2,2.2v11.7c0,1.2-1,2.2-2.2,2.2H45v12.4
	C45,63.9,44,64.9,42.8,64.9z M33.4,60.5h7.3V48.1c0-1.2,1-2.2,2.2-2.2h12.3v-7.3H42.8c-1.2,0-2.2-1-2.2-2.2V24h-7.3v12.4
	c0,1.2-1,2.2-2.2,2.2H18.9v7.3h12.3c1.2,0,2.2,1,2.2,2.2V60.5z"/>
</svg>
