<?xml version="1.0" encoding="utf-8"?>
<!-- Generator: Adobe Illustrator 17.1.0, SVG Export Plug-In . SVG Version: 6.00 Build 0)  -->
<!DOCTYPE svg PUBLIC "-//W3C//DTD SVG 1.1//EN" "http://www.w3.org/Graphics/SVG/1.1/DTD/svg11.dtd">
<svg version="1.1" id="Layer_2" xmlns="http://www.w3.org/2000/svg" xmlns:xlink="http://www.w3.org/1999/xlink" x="0px" y="0px"
	 viewBox="0 0 74 88.2" enable-background="new 0 0 74 88.2" xml:space="preserve">
<path fill="none" d="M64.5,81.6H9c-5,0-9-4.1-9-9V17c0-5,4.1-9,9-9h55.5c5,0,9,4.1,9,9v55.5C73.6,77.5,69.5,81.6,64.5,81.6z M9,11.6
	c-3,0-5.4,2.4-5.4,5.4v55.5c0,3,2.4,5.4,5.4,5.4h55.5c3,0,5.4-2.4,5.4-5.4V17c0-3-2.4-5.4-5.4-5.4H9z"/>
<path fill="none" d="M42.8,53.8c-0.8,0-1.5-0.5-1.7-1.3L33,27.4l-5.4,14.4C27.4,42.5,26.7,43,26,43c0,0,0,0,0,0
	c-0.7,0-1.4-0.4-1.7-1.1l-4.7-11.2l-4.2,6.7c-0.3,0.5-0.9,0.9-1.5,0.9H1.8v-3.6h11.1l5.5-8.8c0.4-0.6,1-0.9,1.7-0.8
	c0.7,0.1,1.3,0.5,1.5,1.1l4.3,10.3l5.6-15c0.3-0.7,0.9-1.2,1.7-1.2c0,0,0,0,0,0c0.8,0,1.4,0.5,1.7,1.3l7.5,23.6l5.8-28.2
	c0.2-0.8,0.8-1.4,1.6-1.4c0.8-0.1,1.5,0.4,1.8,1.2l6.8,18.1h13.2v3.6H57.3c-0.8,0-1.4-0.5-1.7-1.2l-5-13.4l-6,28.8
	C44.4,53.2,43.7,53.8,42.8,53.8C42.9,53.8,42.8,53.8,42.8,53.8z"/>
<path fill="none" d="M11.5,74.3c-1,0-1.8-0.8-1.8-1.8v-4.8c0-1,0.8-1.8,1.8-1.8c1,0,1.8,0.8,1.8,1.8v4.8
	C13.3,73.5,12.5,74.3,11.5,74.3z"/>
<path fill="none" d="M30.7,74.3c-1,0-1.8-0.8-1.8-1.8v-4.8c0-1,0.8-1.8,1.8-1.8s1.8,0.8,1.8,1.8v4.8C32.6,73.5,31.7,74.3,30.7,74.3z
	"/>
<path fill="none" d="M50,74.3c-1,0-1.8-0.8-1.8-1.8v-4.8c0-1,0.8-1.8,1.8-1.8s1.8,0.8,1.8,1.8v4.8C51.9,73.5,51,74.3,50,74.3z"/>
<path fill="none" d="M21.1,74.3c-1,0-1.8-0.8-1.8-1.8v-9.6c0-1,0.8-1.8,1.8-1.8c1,0,1.8,0.8,1.8,1.8v9.6
	C22.9,73.5,22.1,74.3,21.1,74.3z"/>
<path fill="none" d="M40.4,74.3c-1,0-1.8-0.8-1.8-1.8v-9.6c0-1,0.8-1.8,1.8-1.8s1.8,0.8,1.8,1.8v9.6C42.2,73.5,41.4,74.3,40.4,74.3z
	"/>
<path fill="none" d="M59.7,74.3c-1,0-1.8-0.8-1.8-1.8v-9.6c0-1,0.8-1.8,1.8-1.8s1.8,0.8,1.8,1.8v9.6C61.5,73.5,60.7,74.3,59.7,74.3z
	"/>
</svg>
