<?xml version="1.0" encoding="utf-8"?>
<!-- Generator: Adobe Illustrator 17.1.0, SVG Export Plug-In . SVG Version: 6.00 Build 0)  -->
<!DOCTYPE svg PUBLIC "-//W3C//DTD SVG 1.1//EN" "http://www.w3.org/Graphics/SVG/1.1/DTD/svg11.dtd">
<svg version="1.1" id="Capa_1" xmlns="http://www.w3.org/2000/svg" xmlns:xlink="http://www.w3.org/1999/xlink" x="0px" y="0px"
	 viewBox="0 1 636.7 792" enable-background="new 0 1 636.7 792" xml:space="preserve">
<g>
	<g>
		<path d="M636.7,696c0-18.7-15.2-34-34-34H93.3V152c0-18.7-15.2-34-34-34s-34,15.2-34,34v510.1c0,37.4,30.5,67.9,67.9,67.9h509.4
			C621.4,730,636.7,714.8,636.7,696z"/>
		<path d="M248.7,401L126.2,558.9c-5.8,7.4-4.4,18.1,3,23.8l26.8,20.9c7.4,5.8,18.1,4.4,23.8-3l104.5-134.7
			c5.7-7.4,14.3-12.1,23.6-13l115.7-11.2c9-0.9,17.3-5.2,23-12.2l118.6-144.1l28.5,23.6c10.9,9,27.3,1.6,27.8-12.5l4.1-115.9
			c0.4-10.9-9.6-19.4-20.3-17.3l-115.9,23.4c-14,2.8-18.5,20.6-7.5,29.8l31,25.7L412,364.6c-5.7,6.9-14,11.3-23,12.2l-116.8,11.3
			C262.9,389,254.4,393.7,248.7,401z"/>
	</g>
</g>
<g>
	<g>
		<path fill="#FFFFFF" d="M611.7,669c0-18.7-15.2-34-34-34H68.3V125c0-18.7-15.2-34-34-34s-34,15.2-34,34v510.1
			c0,37.4,30.5,67.9,67.9,67.9h509.4C596.4,703,611.7,687.8,611.7,669z"/>
		<path fill="#FFFFFF" d="M223.7,374L101.2,531.9c-5.8,7.4-4.4,18.1,3,23.8l26.8,20.9c7.4,5.8,18.1,4.4,23.8-3l104.5-134.7
			c5.7-7.4,14.3-12.1,23.6-13l115.7-11.2c9-0.9,17.3-5.2,23-12.2l118.6-144.1l28.5,23.6c10.9,9,27.3,1.6,27.8-12.5l4.1-115.9
			c0.4-10.9-9.6-19.4-20.3-17.3l-115.9,23.4c-14,2.8-18.5,20.6-7.5,29.8l31,25.7L387,337.6c-5.7,6.9-14,11.3-23,12.2l-116.8,11.3
			C237.9,362,229.4,366.7,223.7,374z"/>
	</g>
</g>
</svg>
